<?xml version="1.0" encoding="utf-8"?>
<!-- Generator: Adobe Illustrator 21.0.2, SVG Export Plug-In . SVG Version: 6.00 Build 0)  -->
<svg version="1.1" id="Capa_1" xmlns="http://www.w3.org/2000/svg" xmlns:xlink="http://www.w3.org/1999/xlink" x="0px" y="0px"
	 viewBox="0 0 648.3 263" style="enable-background:new 0 0 648.3 263;" xml:space="preserve">
<style type="text/css">
	.st0{fill:#FFFFFF;}
	.st1{fill:#59F2FA;stroke:#59F2FA;stroke-width:1.51;}
</style>
<g>
	<path class="st0" d="M161.9,160.8H188v45.8h-26.1V261h-59.3v-54.4H3.5L0,170.3L102.7,5.1V4.6H162v156.2H161.9z M56.4,160.8h46.1
		V81.9l-3.7,6L56.4,160.8z"/>
	<path class="st0" d="M622.2,160.8h26.1v45.8h-26.1V261h-59.3v-54.4h-99.1l-3.5-36.3L563,5.1V4.6h59.3L622.2,160.8L622.2,160.8z
		 M516.8,160.8h46.1V81.9l-3.7,6L516.8,160.8z"/>
	<g>
		<path class="st0" d="M331.9,97.3C312,97.3,296,113,296,132.6c0,2.7,0.3,5.1,0.9,7.6L242,220.8l82.1-53.7c2.4,0.6,5.1,0.9,7.9,0.9
			c19.9,0,35.9-15.7,35.9-35.3c0-2.7-0.3-5.1-0.6-7.5l54.6-80.6l-82.1,53.7C337.4,97.6,334.6,97.3,331.9,97.3L331.9,97.3z"/>
		<path class="st0" d="M409.8,71.7c6.9,8.4,12.4,18.1,16.3,28.7c3.6,10.3,5.7,21.1,5.7,32.3c0,13.3-2.7,26-7.5,37.4
			c-5.1,11.8-12.7,22.7-21.7,31.7c-9.1,9.1-20.2,16.3-32.6,21.1c-11.8,4.8-24.5,7.5-38,7.5c-11.5,0-22.6-2.1-32.9-5.7
			c-10.9-3.6-20.8-9.1-29.3-16l-2.4-1.5l2.4-1.5l3.6-2.4l1.2-0.9l1.2,0.9c7.9,6,16.9,10.9,26.6,14.2c9,3,19.3,4.5,29.6,4.5
			c12.4,0,24.2-2.1,35-6.6c11.2-4.5,21.1-11.2,29.6-19.3c8.5-8.5,15.4-18.1,19.9-29c4.5-10.6,6.9-22.3,6.9-34.4
			c0-10.3-1.8-19.9-4.8-29c-3.3-9.7-8.2-18.1-14.5-26l-0.9-1.2l0.9-1.2l2.4-3.6l1.5-2.1L409.8,71.7z"/>
		<path class="st0" d="M331.9,35.1c11.5,0,22.6,1.8,33.2,5.4s20.5,9.1,29.3,15.7l2.1,1.8l-2.4,1.8l-3.6,2.4l-1.2,0.6l-1.2-0.9
			c-7.8-6-16.9-10.6-26.3-13.9s-19.6-4.8-29.9-4.8c-12.4,0-24.2,2.4-34.7,6.6c-11.5,4.5-21.4,11.2-29.9,19.3
			c-8.5,8.4-15.1,18.4-19.9,29.3c-4.5,10.6-7,22-7,34.1c0,10.3,1.8,19.9,4.8,29c3.3,9.7,8.4,18.4,14.5,26l0.9,1.2l-0.9,1.2l-2.4,3.6
			l-1.5,2.1l-1.8-1.8c-6.9-8.8-12.4-18.4-16.3-29c-3.6-10-5.7-21.1-5.7-32.3c0-13.3,3-26,7.8-37.4c4.8-11.8,12.4-22.6,21.4-31.4
			c9.4-9.4,20.2-16.3,32.6-21.4C305.7,37.5,318.3,35.1,331.9,35.1L331.9,35.1z"/>
		<path class="st1" d="M350,132.6c0,10-8.2,17.8-18.1,17.8c-10,0-17.8-7.9-17.8-17.8c0-9.7,7.8-17.5,17.8-17.5
			C341.9,115.1,350,123,350,132.6L350,132.6z"/>
	</g>
</g>
</svg>
