<?xml version="1.0" encoding="UTF-8" standalone="no"?>
<svg
   xmlns:dc="http://purl.org/dc/elements/1.1/"
   xmlns:cc="http://creativecommons.org/ns#"
   xmlns:rdf="http://www.w3.org/1999/02/22-rdf-syntax-ns#"
   xmlns:svg="http://www.w3.org/2000/svg"
   xmlns="http://www.w3.org/2000/svg"
   xmlns:sodipodi="http://sodipodi.sourceforge.net/DTD/sodipodi-0.dtd"
   xmlns:inkscape="http://www.inkscape.org/namespaces/inkscape"
   width="217"
   height="576.21899"
   version="1.1"
   id="svg36"
   sodipodi:docname="asthma-level-3.svg"
   inkscape:version="0.92.1 r15371">
  <metadata
     id="metadata42">
    <rdf:RDF>
      <cc:Work
         rdf:about="">
        <dc:format>image/svg+xml</dc:format>
        <dc:type
           rdf:resource="http://purl.org/dc/dcmitype/StillImage" />
        <dc:title></dc:title>
      </cc:Work>
    </rdf:RDF>
  </metadata>
  <defs
     id="defs40" />
  <sodipodi:namedview
     pagecolor="#ffffff"
     bordercolor="#666666"
     borderopacity="1"
     objecttolerance="10"
     gridtolerance="10"
     guidetolerance="10"
     inkscape:pageopacity="0"
     inkscape:pageshadow="2"
     inkscape:window-width="1440"
     inkscape:window-height="837"
     id="namedview38"
     showgrid="false"
     inkscape:zoom="1.158429"
     inkscape:cx="542.00451"
     inkscape:cy="355.63579"
     inkscape:window-x="-8"
     inkscape:window-y="-8"
     inkscape:window-maximized="1"
     inkscape:current-layer="svg36" />
  <g
     id="g5">
    <title
       id="title2">background</title>
    <rect
       id="canvas_background"
       height="402"
       width="582"
       y="-1"
       x="-1"
       style="fill:none" />
  </g>
  <g
     id="g34"
     transform="translate(-179.702)">
    <title
       id="title7">Layer 1</title>
    <path
       id="svg_2"
       d="M 321.577,406.949 V 172.124 c -36.26,22.711 -37.455,-23.906 -66.937,0 v 234.825 c -23.973,12.234 -40.439,37.154 -40.439,65.863 0,40.752 33.155,73.906 73.908,73.906 40.753,0 73.908,-33.154 73.908,-73.906 0,-28.708 -16.465,-53.628 -40.44,-65.863 z m -2.896,75.957 c -10.318,0 -18.686,-8.367 -18.686,-18.686 0,-10.319 8.357,-18.686 18.686,-18.686 10.318,0 18.684,8.367 18.684,18.686 0,10.319 -8.366,18.686 -18.684,18.686 z"
       inkscape:connector-curvature="0"
       style="fill:#fb8c00" />
    <g
       id="svg_10" />
    <g
       id="svg_11" />
    <g
       id="svg_12" />
    <g
       id="svg_13" />
    <g
       id="svg_14" />
    <g
       id="svg_15" />
    <g
       id="svg_16" />
    <g
       id="svg_17" />
    <g
       id="svg_18" />
    <g
       id="svg_19" />
    <g
       id="svg_20" />
    <g
       id="svg_21" />
    <g
       id="svg_22" />
    <g
       id="svg_23" />
    <g
       id="svg_24" />
    <g
       id="svg_25">
      <path
         id="svg_3"
         d="m 264.203,57.374 h 57.375 c 2.639,0 4.781,-2.142 4.781,-4.781 0,-2.639 -2.143,-4.781 -4.781,-4.781 h -57.375 c -2.64,0 -4.781,2.142 -4.781,4.781 -0.001,2.639 2.141,4.781 4.781,4.781 z"
         inkscape:connector-curvature="0"
         style="fill:#ef6c00" />
      <path
         id="svg_4"
         d="M 321.577,66.937 H 292.89 c -2.639,0 -4.781,2.142 -4.781,4.781 0,2.639 2.142,4.781 4.781,4.781 h 28.688 c 2.641,0 4.781,-2.142 4.781,-4.781 -10e-4,-2.639 -2.141,-4.781 -4.782,-4.781 z"
         inkscape:connector-curvature="0"
         style="fill:#ef6c00" />
      <path
         id="svg_5"
         d="m 264.203,95.624 h 57.375 c 2.639,0 4.781,-2.142 4.781,-4.781 0,-2.639 -2.143,-4.781 -4.781,-4.781 h -57.375 c -2.64,0 -4.781,2.142 -4.781,4.781 -0.001,2.639 2.141,4.781 4.781,4.781 z"
         inkscape:connector-curvature="0"
         style="fill:#ef6c00" />
      <path
         id="svg_6"
         d="M 321.577,105.187 H 292.89 c -2.639,0 -4.781,2.142 -4.781,4.781 0,2.639 2.142,4.781 4.781,4.781 h 28.688 c 2.641,0 4.781,-2.142 4.781,-4.781 -10e-4,-2.639 -2.141,-4.781 -4.782,-4.781 z"
         inkscape:connector-curvature="0"
         style="fill:#ef6c00" />
      <path
         id="svg_7"
         d="m 264.203,133.874 h 57.375 c 2.639,0 4.781,-2.142 4.781,-4.781 0,-2.639 -2.141,-4.781 -4.781,-4.781 h -57.375 c -2.639,0 -4.78,2.142 -4.78,4.781 -10e-4,2.639 2.14,4.781 4.78,4.781 z"
         inkscape:connector-curvature="0"
         style="fill:#ef6c00" />
      <path
         id="svg_8"
         d="M 321.577,143.437 H 292.89 c -2.639,0 -4.781,2.142 -4.781,4.781 0,2.639 2.142,4.781 4.781,4.781 h 28.688 c 2.641,0 4.781,-2.142 4.781,-4.781 -10e-4,-2.639 -2.141,-4.781 -4.782,-4.781 z"
         inkscape:connector-curvature="0"
         style="fill:#ef6c00" />
      <path
         id="svg_9"
         d="M 350.265,390.225 V 46.349 C 350.265,17.757 328.894,0 294.487,0 h -10.356 c -34.798,0 -58.179,18.628 -58.179,46.349 v 343.875 c -25.037,18.889 -41.25,48.879 -41.25,82.588 0,57.018 46.388,103.406 103.408,103.406 57.02,0 103.407,-46.389 103.407,-103.406 0,-33.708 -16.215,-63.699 -41.252,-82.587 z m -62.156,175.994 c -51.588,0 -93.408,-41.82 -93.408,-93.406 0,-27.719 12.077,-52.611 31.251,-69.719 3.019,-2.693 6.211,-5.193 9.562,-7.482 V 46.349 c 0,-27.157 26.182,-36.787 48.606,-36.787 h 10.355 c 10.844,0 46.225,2.649 46.225,36.787 v 349.264 c 3.352,2.287 6.545,4.789 9.562,7.482 19.174,17.105 31.252,42 31.252,69.717 0.003,51.588 -41.818,93.407 -93.405,93.407 z"
         inkscape:connector-curvature="0"
         style="fill:#ef6c00" />
    </g>
    <ellipse
       ry="32"
       rx="28"
       id="svg_29"
       cy="456.6095"
       cx="321.6095"
       stroke-width="null"
       style="fill:#fb8c00" />
  </g>
</svg>
