<?xml version="1.0" encoding="UTF-8" standalone="no"?>
<svg
   xmlns:dc="http://purl.org/dc/elements/1.1/"
   xmlns:cc="http://creativecommons.org/ns#"
   xmlns:rdf="http://www.w3.org/1999/02/22-rdf-syntax-ns#"
   xmlns:svg="http://www.w3.org/2000/svg"
   xmlns="http://www.w3.org/2000/svg"
   xmlns:sodipodi="http://sodipodi.sourceforge.net/DTD/sodipodi-0.dtd"
   xmlns:inkscape="http://www.inkscape.org/namespaces/inkscape"
   width="217"
   height="576.21899"
   version="1.1"
   id="svg46"
   sodipodi:docname="asthma-level-1.svg"
   inkscape:version="0.92.1 r15371">
  <metadata
     id="metadata52">
    <rdf:RDF>
      <cc:Work
         rdf:about="">
        <dc:format>image/svg+xml</dc:format>
        <dc:type
           rdf:resource="http://purl.org/dc/dcmitype/StillImage" />
        <dc:title></dc:title>
      </cc:Work>
    </rdf:RDF>
  </metadata>
  <defs
     id="defs50" />
  <sodipodi:namedview
     pagecolor="#ffffff"
     bordercolor="#666666"
     borderopacity="1"
     objecttolerance="10"
     gridtolerance="10"
     guidetolerance="10"
     inkscape:pageopacity="0"
     inkscape:pageshadow="2"
     inkscape:window-width="1440"
     inkscape:window-height="837"
     id="namedview48"
     showgrid="false"
     inkscape:zoom="0.94"
     inkscape:cx="-2.318535"
     inkscape:cy="274.70356"
     inkscape:window-x="-8"
     inkscape:window-y="-8"
     inkscape:window-maximized="1"
     inkscape:current-layer="svg46" />
  <g
     id="g5"
     transform="translate(0,-4.140625e-6)">
    <title
       id="title2">background</title>
    <rect
       id="canvas_background"
       height="402"
       width="582"
       y="-1"
       x="-1"
       style="fill:none" />
  </g>
  <g
     id="g91"
     transform="translate(-179.702,-4.140625e-6)">
    <g
       id="g44">
      <title
         id="title7">Layer 1</title>
      <path
         d="m 259.422,68.374 h 57.375 c 2.639,0 4.781,-2.142 4.781,-4.781 0,-2.639 -2.143,-4.781 -4.781,-4.781 h -57.375 c -2.64,0 -4.781,2.142 -4.781,4.781 0,2.639 2.141,4.781 4.781,4.781 z"
         id="svg_3"
         inkscape:connector-curvature="0"
         style="fill:#007f00" />
      <path
         d="m 316.797,77.937 h -28.688 c -2.639,0 -4.78,2.142 -4.78,4.781 0,2.639 2.142,4.781 4.78,4.781 h 28.688 c 2.639,0 4.781,-2.142 4.781,-4.781 0,-2.639 -2.141,-4.781 -4.781,-4.781 z"
         id="svg_4"
         inkscape:connector-curvature="0"
         style="fill:#007f00" />
      <path
         d="m 259.422,106.624 h 57.375 c 2.639,0 4.781,-2.142 4.781,-4.781 0,-2.639 -2.143,-4.781 -4.781,-4.781 h -57.375 c -2.64,0 -4.781,2.142 -4.781,4.781 0,2.639 2.141,4.781 4.781,4.781 z"
         id="svg_5"
         inkscape:connector-curvature="0"
         style="fill:#007f00" />
      <path
         d="m 316.797,116.187 h -28.688 c -2.639,0 -4.78,2.142 -4.78,4.781 0,2.639 2.142,4.781 4.78,4.781 h 28.688 c 2.639,0 4.781,-2.142 4.781,-4.781 0,-2.639 -2.141,-4.781 -4.781,-4.781 z"
         id="svg_6"
         inkscape:connector-curvature="0"
         style="fill:#007f00" />
      <path
         d="m 259.422,144.874 h 57.375 c 2.639,0 4.781,-2.142 4.781,-4.781 0,-2.639 -2.142,-4.781 -4.781,-4.781 h -57.375 c -2.64,0 -4.781,2.142 -4.781,4.781 0,2.639 2.141,4.781 4.781,4.781 z"
         id="svg_7"
         inkscape:connector-curvature="0"
         style="fill:#007f00" />
      <path
         d="m 316.797,154.437 h -28.688 c -2.639,0 -4.78,2.142 -4.78,4.781 0,2.639 2.142,4.781 4.78,4.781 h 28.688 c 2.639,0 4.781,-2.142 4.781,-4.781 0,-2.639 -2.141,-4.781 -4.781,-4.781 z"
         id="svg_8"
         inkscape:connector-curvature="0"
         style="fill:#007f00" />
      <path
         d="m 259.422,183.124 h 57.375 c 2.639,0 4.781,-2.142 4.781,-4.781 0,-2.639 -2.143,-4.781 -4.781,-4.781 h -57.375 c -2.64,0 -4.781,2.142 -4.781,4.781 0,2.639 2.141,4.781 4.781,4.781 z"
         id="svg_9"
         inkscape:connector-curvature="0"
         style="fill:#007f00" />
      <path
         d="m 316.797,192.687 h -28.688 c -2.639,0 -4.78,2.142 -4.78,4.781 0,2.639 2.142,4.781 4.78,4.781 h 28.688 c 2.639,0 4.781,-2.142 4.781,-4.781 0,-2.639 -2.141,-4.781 -4.781,-4.781 z"
         id="svg_10"
         inkscape:connector-curvature="0"
         style="fill:#007f00" />
      <path
         d="m 259.422,221.374 h 57.375 c 2.639,0 4.781,-2.142 4.781,-4.781 0,-2.639 -2.143,-4.781 -4.781,-4.781 h -57.375 c -2.64,0 -4.781,2.142 -4.781,4.781 0,2.639 2.141,4.781 4.781,4.781 z"
         id="svg_11"
         inkscape:connector-curvature="0"
         style="fill:#007f00" />
      <path
         d="m 316.797,230.937 h -28.688 c -2.639,0 -4.78,2.142 -4.78,4.781 0,2.639 2.142,4.781 4.78,4.781 h 28.688 c 2.639,0 4.781,-2.142 4.781,-4.781 0,-2.639 -2.141,-4.781 -4.781,-4.781 z"
         id="svg_12"
         inkscape:connector-curvature="0"
         style="fill:#007f00" />
      <path
         d="m 259.422,259.624 h 57.375 c 2.639,0 4.781,-2.142 4.781,-4.781 0,-2.639 -2.143,-4.781 -4.781,-4.781 h -57.375 c -2.64,0 -4.781,2.142 -4.781,4.781 0,2.639 2.141,4.781 4.781,4.781 z"
         id="svg_13"
         inkscape:connector-curvature="0"
         style="fill:#007f00" />
      <path
         d="m 316.797,269.187 h -28.688 c -2.639,0 -4.78,2.142 -4.78,4.781 0,2.639 2.142,4.781 4.78,4.781 h 28.688 c 2.639,0 4.781,-2.142 4.781,-4.781 0,-2.639 -2.141,-4.781 -4.781,-4.781 z"
         id="svg_14"
         inkscape:connector-curvature="0"
         style="fill:#007f00" />
      <path
         d="m 259.422,297.874 h 57.375 c 2.639,0 4.781,-2.142 4.781,-4.78 0,-2.64 -2.142,-4.781 -4.781,-4.781 h -57.375 c -2.64,0 -4.781,2.142 -4.781,4.781 0,2.638 2.141,4.78 4.781,4.78 z"
         id="svg_15"
         inkscape:connector-curvature="0"
         style="fill:#007f00" />
      <path
         d="m 316.797,307.438 h -28.688 c -2.639,0 -4.78,2.142 -4.78,4.781 0,2.639 2.142,4.78 4.78,4.78 h 28.688 c 2.639,0 4.781,-2.142 4.781,-4.78 0,-2.64 -2.141,-4.781 -4.781,-4.781 z"
         id="svg_16"
         inkscape:connector-curvature="0"
         style="fill:#007f00" />
      <path
         d="m 259.422,336.124 h 57.375 c 2.639,0 4.781,-2.142 4.781,-4.78 0,-2.64 -2.143,-4.781 -4.781,-4.781 h -57.375 c -2.64,0 -4.781,2.142 -4.781,4.781 0,2.638 2.141,4.78 4.781,4.78 z"
         id="svg_17"
         inkscape:connector-curvature="0"
         style="fill:#007f00" />
      <path
         d="m 316.797,345.688 h -28.688 c -2.639,0 -4.78,2.142 -4.78,4.781 0,2.639 2.142,4.78 4.78,4.78 h 28.688 c 2.639,0 4.781,-2.142 4.781,-4.78 0,-2.64 -2.141,-4.781 -4.781,-4.781 z"
         id="svg_18"
         inkscape:connector-curvature="0"
         style="fill:#007f00" />
      <path
         d="m 259.422,374.374 h 57.375 c 2.639,0 4.781,-2.142 4.781,-4.78 0,-2.64 -2.143,-4.781 -4.781,-4.781 h -57.375 c -2.64,0 -4.781,2.142 -4.781,4.781 0,2.638 2.141,4.78 4.781,4.78 z"
         id="svg_19"
         inkscape:connector-curvature="0"
         style="fill:#007f00" />
      <path
         d="M 321.578,406.949 V 389.6 c -36.261,22.711 -37.455,-23.906 -66.938,0 v 17.35 c -23.973,12.234 -40.439,37.154 -40.439,65.863 0,40.752 33.155,73.906 73.908,73.906 40.753,0 73.908,-33.154 73.908,-73.906 0,-28.709 -16.465,-53.629 -40.439,-65.864 z m -2.897,75.957 c -10.318,0 -18.685,-8.367 -18.685,-18.686 0,-10.319 8.357,-18.686 18.685,-18.686 10.318,0 18.685,8.367 18.685,18.686 0,10.319 -8.367,18.686 -18.685,18.686 z"
         id="svg_20"
         inkscape:connector-curvature="0"
         style="fill:#56ce56" />
      <path
         d="M 350.266,390.225 V 46.349 C 350.266,17.757 328.894,0 294.487,0 h -10.355 c -34.798,0 -58.179,18.628 -58.179,46.349 v 343.875 c -25.036,18.889 -41.251,48.879 -41.251,82.588 0,57.018 46.389,103.406 103.408,103.406 57.021,0 103.406,-46.389 103.406,-103.406 10e-4,-33.708 -16.213,-63.699 -41.25,-82.587 z m -62.157,175.994 c -51.588,0 -93.408,-41.82 -93.408,-93.406 0,-27.719 12.077,-52.611 31.252,-69.719 3.019,-2.693 6.211,-5.193 9.562,-7.482 V 46.349 c 0,-27.157 26.182,-36.787 48.606,-36.787 h 10.355 c 10.844,0 46.225,2.649 46.225,36.787 v 349.264 c 3.352,2.287 6.545,4.789 9.562,7.482 19.174,17.105 31.251,42 31.251,69.717 0.003,51.588 -41.818,93.407 -93.405,93.407 z"
         id="svg_21"
         inkscape:connector-curvature="0"
         style="fill:#007f00" />
      <g
         id="svg_22" />
      <g
         id="svg_23" />
      <g
         id="svg_24" />
      <g
         id="svg_25" />
      <g
         id="svg_26" />
      <g
         id="svg_27" />
      <g
         id="svg_28" />
      <g
         id="svg_29" />
      <g
         id="svg_30" />
      <g
         id="svg_31" />
      <g
         id="svg_32" />
      <g
         id="svg_33" />
      <g
         id="svg_34" />
      <g
         id="svg_35" />
      <g
         id="svg_36" />
      <ellipse
         stroke="null"
         stroke-width="null"
         stroke-opacity="null"
         cx="311.1095"
         cy="464.1095"
         id="svg_37"
         rx="31.5"
         ry="34.5"
         style="fill:#56ce56" />
    </g>
  </g>
</svg>
