<?xml version="1.0" encoding="utf-8"?>
<!-- Generator: Adobe Illustrator 21.0.2, SVG Export Plug-In . SVG Version: 6.00 Build 0)  -->
<svg version="1.1" id="Capa_1" xmlns="http://www.w3.org/2000/svg" xmlns:xlink="http://www.w3.org/1999/xlink" x="0px" y="0px"
	 viewBox="0 0 55 62" style="enable-background:new 0 0 55 62;" xml:space="preserve">
<g>
	<g>
		<path d="M48.1,39.7V25.8c0-9.8-6.8-18-15.9-20.1C32.1,3.1,30,1,27.4,1c-2.6,0-4.7,2.1-4.7,4.6C13.5,7.8,6.7,16,6.7,25.8v13.9
			c-3.4,0-6.2,2.8-6.2,6.2v4.4h53.8v-4.4C54.3,42.4,51.5,39.7,48.1,39.7z"/>
		<path d="M27.4,60.5c4.1,0,7.6-2.8,8.7-6.6H18.7C19.8,57.7,23.3,60.5,27.4,60.5z"/>
	</g>
</g>
</svg>
