<?xml version="1.0" encoding="utf-8"?>
<!-- Generator: Adobe Illustrator 21.0.2, SVG Export Plug-In . SVG Version: 6.00 Build 0)  -->
<svg version="1.1" id="Capa_1" xmlns="http://www.w3.org/2000/svg" xmlns:xlink="http://www.w3.org/1999/xlink" x="0px" y="0px"
	 viewBox="0 0 64 59" style="enable-background:new 0 0 64 59;" xml:space="preserve">
<g>
	<path d="M14.7,27.6L14.7,27.6l3.9-14.5H22l6.8,25.3l2.5-9.5l1.7-1.3h6.5l3.9-14.5h3.4l3.9,14.5h11.3c0.8-2.5,1.2-5.2,1.2-7.9
		c0-10.4-8-18.8-17.9-18.8c-5.2,0-9.9,2.4-13.2,6c-3.2-3.6-7.9-6-13.1-6c-9.8,0-18,8.4-18,18.8c0,2.8,0.6,5.5,1.3,7.9H14.7z"/>
	<path d="M49.4,31.2h11.3C53.1,47.5,32.3,58,32.3,58S11.5,47.5,4,31.2h12l1.7-1.3l2.6-9.5l6.8,25.3h3.4l3.9-14.5h6.4l1.7-1.3
		l2.5-9.5l2.6,9.5L49.4,31.2z"/>
</g>
</svg>
