<?xml version="1.0" encoding="utf-8"?>
<!-- Generator: Adobe Illustrator 19.0.1, SVG Export Plug-In . SVG Version: 6.00 Build 0)  -->
<svg version="1.1" id="Layer_1" xmlns="http://www.w3.org/2000/svg" xmlns:xlink="http://www.w3.org/1999/xlink" x="0px" y="0px"
	 viewBox="0 0 311.8 76.2" style="enable-background:new 0 0 311.8 76.2;" xml:space="preserve">
<style type="text/css">
	.st0{fill-rule:evenodd;clip-rule:evenodd;fill:#005488;}
	.st1{fill-rule:evenodd;clip-rule:evenodd;fill:#559534;}
</style>
<g>
	<path class="st0" d="M95.6,30.5c0-2.2-0.8-4.2-2.4-5.8c-1.6-1.6-3.5-2.4-5.8-2.4V53c0,2.2,0.8,4.2,2.4,5.8c1.6,1.6,3.5,2.4,5.8,2.4
		V30.5z"/>
	<path class="st0" d="M130.4,41.8c0-3.2-1.1-5.9-3.4-8.3c-2.2-2.3-4.9-3.5-8.1-3.5c-3.2,0-5.9,1.2-8.2,3.5c-2.2,2.3-3.4,5.1-3.4,8.3
		V53c0,2.2-0.8,4.2-2.4,5.8c-1.6,1.6-3.5,2.4-5.8,2.4V41.8c0-5.4,1.9-10,5.8-13.8c3.9-3.8,8.5-5.7,13.9-5.7c5.4,0,10,1.9,13.9,5.7
		c3.9,3.8,5.8,8.4,5.8,13.8v19.4c-2.2,0-4.2-0.8-5.8-2.4c-1.6-1.6-2.4-3.5-2.4-5.8V41.8z"/>
	<path class="st0" d="M159.4,37.9h14.2c0,2.2-0.8,4-2.3,5.5c-1.5,1.5-3.4,2.3-5.5,2.3h-6.5c-1.1,0-2-0.4-2.7-1.1
		c-0.7-0.7-1.1-1.6-1.1-2.7c0-1.1,0.4-2,1.1-2.8C157.3,38.2,158.3,37.9,159.4,37.9z M150.6,41.7c0-3.2,1.1-6,3.4-8.2
		c2.2-2.3,5-3.4,8.2-3.4h3.7c2.1,0,4-0.8,5.5-2.3c1.5-1.5,2.3-3.3,2.3-5.5h-11.5c-5.4,0-10,1.9-13.9,5.7c-3.9,3.8-5.8,8.4-5.8,13.7
		v19.5c2.2,0,4.2-0.8,5.8-2.4c1.6-1.6,2.4-3.5,2.4-5.8V41.7z"/>
	<path class="st0" d="M194.5,22.3c5.4,0,10,1.9,13.9,5.7c3.9,3.8,5.8,8.4,5.8,13.8c0,5.4-1.9,10-5.8,13.7c-3.9,3.8-8.5,5.7-13.9,5.7
		c-5.4,0-10-1.9-13.9-5.7c-3.9-3.8-5.8-8.4-5.8-13.7c0-5.4,1.9-10,5.8-13.8C184.5,24.2,189.1,22.3,194.5,22.3z M194.5,30
		c-3.2,0-5.9,1.2-8.1,3.5c-2.2,2.3-3.3,5.1-3.3,8.3s1.1,6,3.3,8.2c2.2,2.3,4.9,3.4,8.1,3.4c3.2,0,5.9-1.1,8.2-3.4
		c2.2-2.3,3.4-5,3.4-8.2s-1.1-6-3.4-8.3C200.4,31.2,197.7,30,194.5,30z"/>
	<path class="st0" d="M248.8,22.9c0,2.1-0.8,4-2.3,5.5c-1.5,1.5-3.3,2.3-5.5,2.3h-7.8v30.6c-2.2,0-4.2-0.8-5.8-2.4
		c-1.6-1.6-2.4-3.5-2.4-5.8V30.6h-7.8c-2.1,0-4-0.8-5.5-2.3c-1.5-1.5-2.3-3.3-2.3-5.5H248.8z"/>
	<path class="st0" d="M266.8,61.2c-5.4,0-10-1.9-13.9-5.7c-3.9-3.8-5.8-8.4-5.8-13.7c0-5.4,1.9-10,5.8-13.8
		c3.9-3.8,8.5-5.7,13.9-5.7h11.5c0,2.1-0.8,4-2.3,5.5c-1.5,1.5-3.4,2.3-5.5,2.3h-3.7c-3.2,0-5.9,1.2-8.1,3.5
		c-2.2,2.3-3.4,5.1-3.4,8.3c0,3.2,1.1,5.9,3.4,8.2c2.2,2.3,4.9,3.5,8.1,3.5h3.7c2.1,0,4,0.8,5.5,2.3c1.5,1.5,2.3,3.3,2.3,5.5H266.8z
		 M264,37.9h14.2c0,2.2-0.8,4-2.3,5.5c-1.5,1.5-3.4,2.3-5.5,2.3H264c-1.1,0-2-0.4-2.7-1.1c-0.7-0.7-1.1-1.6-1.1-2.7
		c0-1.1,0.4-2,1.1-2.8C262,38.2,262.9,37.9,264,37.9z"/>
	<path class="st0" d="M300.3,61.2c-5.4,0-10-1.9-13.9-5.7c-3.9-3.8-5.8-8.4-5.8-13.7c0-5.4,1.9-10,5.8-13.8
		c3.9-3.8,8.5-5.7,13.9-5.7h11.5c0,2.1-0.8,4-2.3,5.5c-1.5,1.5-3.3,2.3-5.5,2.3h-3.7c-3.2,0-5.9,1.2-8.2,3.5
		c-2.3,2.3-3.4,5.1-3.4,8.3s1.1,6,3.4,8.2c2.3,2.3,5,3.4,8.2,3.4h3.7c2.1,0,4,0.8,5.5,2.3c1.5,1.5,2.3,3.3,2.3,5.5H300.3z"/>
	<path class="st0" d="M0,38.1c0,8.5,2.7,16.5,7.9,23.2c2,2.6,5.6,3,8.2,1.1c2.6-2,3-5.6,1.1-8.2c-3.6-4.6-5.5-10.2-5.5-16
		c0-14.5,11.8-26.4,26.4-26.4c1.8,0,3.6,0.3,4.8,0.7c0,3.2,0,20.8,0,20.8c0,3.2,2.6,5.9,5.9,5.9c3.2,0,5.9-2.6,5.9-5.9V10.5
		c0-2-0.8-6.9-8-9.2C43,0.1,39.2,0,38.1,0C17.1,0,0,17.1,0,38.1z"/>
	<path class="st1" d="M59.9,14.8c-2.3,2.2-2.4,5.9-0.2,8.3c3.5,3.7,4.8,10.4,4.8,15c0,14.5-11.8,26.4-26.4,26.4
		c-2.1,0-4-0.3-5.1-0.6c0-3.2,0-19.3,0-19.3c0-3.2-2.6-5.9-5.9-5.9c-3.2,0-5.9,2.6-5.9,5.9v21.3c0,2,0.8,7,8.2,9.2
		c3.4,1,7.1,1.1,8.6,1.1c21,0,38.1-17.1,38.1-38.1c0-3.5-0.6-15.3-8-23.1C65.9,12.6,62.2,12.5,59.9,14.8z"/>
</g>
</svg>
