<?xml version="1.0" encoding="utf-8"?>
<!-- Generator: Adobe Illustrator 19.0.1, SVG Export Plug-In . SVG Version: 6.00 Build 0)  -->
<svg version="1.1" xmlns="http://www.w3.org/2000/svg" xmlns:xlink="http://www.w3.org/1999/xlink" x="0px" y="0px"
	 viewBox="0 0 401.6 109.3" style="enable-background:new 0 0 401.6 109.3;" xml:space="preserve">
<style type="text/css">
	.st0{display:none;}
	.st1{display:inline;}
	.st2{fill:#13167E;}
</style>
<g id="bg" class="st0">
	<rect x="-22.5" y="-90.1" class="st1" width="442" height="288"/>
</g>
<g id="typography">
	<g>
		<path class="st2" d="M150.6,23.3h-1.7c-0.1-0.6-0.4-1.3-0.8-2.1s-0.8-1.6-1.3-2.3c-0.5-0.8-1-1.4-1.6-2c-0.6-0.6-1.1-0.9-1.7-1
			c-0.5-0.1-1.2-0.1-1.9-0.1c-0.8,0-1.5,0-2.1,0H138v27.9c0,0.5,0.1,1,0.3,1.5c0.2,0.5,0.6,0.8,1.2,1c0.3,0.1,0.9,0.3,1.9,0.5
			c0.9,0.2,1.7,0.3,2.2,0.3v1.7h-16.5V47c0.5,0,1.2-0.1,2.1-0.2c0.9-0.1,1.6-0.2,2-0.4c0.5-0.2,0.9-0.5,1.2-0.9
			c0.3-0.4,0.4-0.9,0.4-1.6V15.7h-1.4c-0.5,0-1.1,0-1.9,0c-0.8,0-1.5,0.1-2.2,0.2c-0.5,0.1-1.1,0.4-1.7,1c-0.6,0.6-1.1,1.2-1.6,2
			c-0.5,0.7-0.9,1.5-1.3,2.4c-0.4,0.8-0.6,1.5-0.8,2.1h-1.7v-9.5h30.5V23.3z"/>
		<path class="st2" d="M165.5,43.5c-3.3,4.1-6.9,5-8.5,5c-6.4,0-10.1-5.2-10.1-11.1c0-3.6,1.3-6.8,3.4-9.1c2.1-2.4,4.9-3.8,7.6-3.8
			c4.3,0,7.8,3.8,7.8,7.9c0,1-0.3,1.5-1.2,1.7c-0.9,0.2-7.4,0.7-13.6,0.9c0.1,7.1,4.1,10,7.8,10c2.1,0,4.1-0.8,5.9-2.6L165.5,43.5z
			 M151.3,32.9c2.9,0,5.8-0.1,8.8-0.2c0.9,0,1.2-0.3,1.2-1c0.1-2.7-1.7-5.2-4.6-5.2C154.3,26.5,152.1,28.7,151.3,32.9z"/>
		<path class="st2" d="M189.7,43.2c-2.3,3-5.8,5.4-8.9,5.4c-6.6,0-10.5-5.4-10.5-11c0-4,1.7-7.6,5.2-10.3c2.7-2.1,5.9-2.9,7.9-2.9
			c2.1,0,3.8,0.7,4.7,1.4c0.7,0.6,0.8,1,0.8,1.6c0,1.1-1.2,2.3-1.7,2.3c-0.3,0-0.5-0.2-1-0.6c-1.6-1.5-3.4-2.2-5.3-2.2
			c-3.5,0-6.5,2.9-6.5,8.4c0,7.3,5,9.7,7.9,9.7c2.3,0,4-0.6,6.4-2.9L189.7,43.2z"/>
		<path class="st2" d="M206.7,48.7v-1.4c3.2-0.3,3.5-0.8,3.5-4.5v-9c0-3.7-1.3-6.1-4.9-6.1c-2.1,0-4.2,1.3-5.8,2.7v12.6
			c0,3.6,0.3,3.9,3.5,4.2v1.4h-11.6v-1.4c3.6-0.4,3.9-0.6,3.9-4.2V32.1c0-3.4-0.3-3.6-3.2-4.1v-1.2c2.6-0.5,5.1-1.1,7.5-2.2v4.3
			c1.1-0.8,2.3-1.6,3.6-2.5c1.5-1,2.9-1.6,4.5-1.6c4.2,0,6.9,3,6.9,8.2v10.4c0,3.6,0.3,3.9,3.4,4.2v1.4H206.7z"/>
		<path class="st2" d="M243.4,36.3c0,8.3-6.1,12.3-11.2,12.3c-7.1,0-11.3-5.7-11.3-11.4c0-8.5,6.6-12.4,11.3-12.4
			C238.5,24.7,243.4,29.9,243.4,36.3z M225.6,35.5c0,6.5,2.8,11.4,7.1,11.4c3.2,0,5.8-2.4,5.8-9.5c0-6.1-2.4-11-6.9-11
			C228.4,26.4,225.6,29.6,225.6,35.5z"/>
		<path class="st2" d="M247.3,48.7v-1.3c3.3-0.3,3.7-0.6,3.7-4V18.9c0-3.5-0.3-3.7-3.6-3.9v-1.2c2.7-0.3,5.9-1.2,7.7-1.8v31.4
			c0,3.4,0.4,3.7,3.7,4v1.3H247.3z"/>
		<path class="st2" d="M284.6,36.1c0,8.4-6.2,12.5-11.4,12.5c-7.2,0-11.5-5.8-11.5-11.6c0-8.6,6.7-12.6,11.5-12.6
			C279.7,24.4,284.6,29.6,284.6,36.1z M266.6,35.3c0,6.6,2.9,11.5,7.2,11.5c3.2,0,5.9-2.4,5.9-9.6c0-6.1-2.5-11.1-7-11.1
			C269.5,26.2,266.6,29.4,266.6,35.3z M271.3,21.5c1-2.2,3.1-7.4,3.5-8.3c0.5-0.2,3.6-0.6,4.2-0.5l0.2,0.5l-6.5,9L271.3,21.5z"/>
		<path class="st2" d="M311.4,25.5c-0.5,0.8-1.5,2.2-2.4,2.7l-3-0.2c1,1.2,1.6,2.8,1.6,4.7c0,5.7-4.7,8.4-9.2,8.4
			c-0.9,0-1.8-0.2-2.7-0.3c-0.7,0.5-1.6,1.4-1.6,2.2c0,1.1,0.9,2.1,3.3,2.1c1.9,0,3.8-0.1,5.5-0.1c3.3,0,7.6,1.1,7.6,6.2
			c0,5.3-6.2,10.4-13.2,10.4c-5.9,0-9.1-3.4-9.1-6.4c0-1.2,0.5-2.2,1.3-3c1.1-1.1,3.1-2.7,4.4-3.7c-1.9-0.6-3.2-1.8-3.9-2.9
			c-0.5-0.8-0.6-1.7-0.6-2.2c2.1-0.8,3.8-2.2,4.6-3.2c-2.4-1-4.6-3.5-4.6-7.1c0-6,5.4-8.8,9.4-8.8c1.8,0,3.5,0.5,5.1,1.3
			c2.6-0.1,5.3-0.4,7.2-0.7L311.4,25.5z M294.9,49.9c-1.4,1.1-2.4,2.6-2.4,4.1c0,2.8,3.1,5,7,5c5,0,7.6-2.6,7.6-5.9
			c0-1.8-0.9-3.1-2.4-3.7c-1.3-0.5-2.8-0.7-5.1-0.7C297,48.8,295.8,49.1,294.9,49.9z M294,32.4c0,4.1,2,7.1,5,7.1
			c2.3-0.1,4.4-2.1,4.4-6.3c0-4.2-2-7.1-5-7.1C296,26.1,294,28.3,294,32.4z"/>
		<path class="st2" d="M313.7,48.6v-1.4c3.4-0.3,3.8-0.6,3.8-4.3V31.8c0-3.3-0.2-3.6-3.4-4.1v-1.3c2.7-0.4,5.3-1.1,7.6-2.1v18.6
			c0,3.7,0.4,4,3.8,4.3v1.4H313.7z M316.5,17c0-1.6,1.3-2.8,2.7-2.8c1.5,0,2.7,1.2,2.7,2.8c0,1.5-1.2,2.7-2.7,2.7
			C317.8,19.7,316.5,18.4,316.5,17z"/>
		<path class="st2" d="M348,43.2c-2.3,3-5.8,5.3-8.9,5.3c-6.6,0-10.5-5.3-10.5-10.9c0-4,1.7-7.5,5.2-10.3c2.7-2.1,5.9-2.9,7.9-2.9
			c2.1,0,3.8,0.7,4.7,1.4c0.7,0.6,0.8,1,0.8,1.6c0,1.1-1.2,2.3-1.7,2.3c-0.3,0-0.5-0.2-1-0.6c-1.6-1.5-3.4-2.1-5.2-2.1
			c-3.5,0-6.5,2.9-6.5,8.4c0,7.3,5,9.7,7.9,9.7c2.3,0,4-0.6,6.4-2.9L348,43.2z"/>
		<path class="st2" d="M373.4,36.2c0,8.5-6.2,12.6-11.5,12.6c-7.2,0-11.6-5.8-11.6-11.7c0-8.7,6.8-12.7,11.6-12.7
			C368.5,24.4,373.4,29.6,373.4,36.2z M355.3,35.4c0,6.7,2.9,11.6,7.2,11.6c3.3,0,6-2.4,6-9.7c0-6.2-2.5-11.2-7.1-11.2
			C358.2,26.1,355.3,29.4,355.3,35.4z"/>
		<path class="st2" d="M148.8,95.4c-1.2,0.2-5.2,0.9-8.3,2V94l-3.2,1.9c-2.1,1.2-3.5,1.5-4.2,1.5c-4.3,0-9.9-3.9-9.9-11.3
			c0-7.4,6.5-13.2,13.7-13.2c0.7,0,2.3,0.2,3.5,0.6V66c0-3.5-0.3-3.7-4.1-3.9v-1.3c2.8-0.4,6.3-1.2,8.3-1.9v31.8
			c0,2.8,0.4,3,2.3,3.2l1.7,0.2V95.4z M140.5,77.6c-1.3-1.9-3.5-2.7-5.5-2.7c-2.5,0-6.9,2.1-6.9,9.8c0,6.3,3.9,9.4,7.3,9.4
			c1.9,0,3.8-0.9,5.1-1.8V77.6z"/>
		<path class="st2" d="M170.2,92.2c-3.6,4.5-7.6,5.6-9.3,5.6c-7,0-11.2-5.7-11.2-12.2c0-3.9,1.4-7.4,3.8-10c2.3-2.6,5.4-4.2,8.4-4.2
			c4.7,0,8.6,4.2,8.6,8.7c0,1.1-0.3,1.6-1.3,1.8c-1,0.2-8.1,0.7-14.9,1c0.1,7.8,4.5,11,8.5,11c2.3,0,4.5-0.9,6.5-2.9L170.2,92.2z
			 M154.6,80.5c3.2,0,6.4-0.1,9.7-0.2c1,0,1.4-0.3,1.4-1.1c0.1-3-1.9-5.7-5-5.7C157.9,73.5,155.4,75.9,154.6,80.5z"/>
		<path class="st2" d="M213,97.5V96c4.5-0.4,4.7-0.7,4.6-6.5L217.4,67h-0.2l-13.4,30.1h-1.1l-12.3-29.4h-0.1l-0.8,15.7
			c-0.2,4.5-0.2,6.9-0.2,9.1c0.1,2.6,1.4,3,5.1,3.4v1.5h-12.8V96c3.2-0.4,4.3-1,4.7-3.3c0.3-1.9,0.6-4.3,1-10.1l0.8-11.4
			c0.5-7.2,0.2-7.4-4.8-7.9v-1.5h9l12.5,27.5l12.7-27.5h9.4v1.5c-4.8,0.4-5.2,0.5-5.1,6.2l0.5,19.9c0.2,5.8,0.3,6.1,5.1,6.5v1.5H213
			z"/>
		<path class="st2" d="M250.8,84.3c0,8.9-6.5,13.2-12,13.2c-7.6,0-12.1-6.1-12.1-12.3c0-9.2,7.1-13.3,12.1-13.3
			C245.6,71.9,250.8,77.4,250.8,84.3z M231.8,83.4c0,7,3.1,12.2,7.6,12.2c3.4,0,6.3-2.6,6.3-10.2c0-6.5-2.6-11.8-7.4-11.8
			C234.8,73.7,231.8,77.2,231.8,83.4z"/>
		<path class="st2" d="M268,97.5v-1.5c3.4-0.3,3.8-0.8,3.8-4.7v-9.5c0-3.9-1.4-6.5-5.2-6.5c-2.3,0-4.5,1.4-6.2,2.9v13.4
			c0,3.9,0.3,4.1,3.7,4.4v1.5h-12.3v-1.5c3.9-0.4,4.2-0.7,4.2-4.4V79.8c0-3.6-0.3-3.8-3.4-4.4v-1.3c2.7-0.5,5.4-1.2,7.9-2.3v4.6
			c1.1-0.9,2.4-1.7,3.8-2.7c1.6-1,3.1-1.7,4.7-1.7c4.5,0,7.3,3.1,7.3,8.6v11c0,3.9,0.3,4.1,3.6,4.4v1.5H268z"/>
		<path class="st2" d="M291,96.7c-0.9,0.5-1.8,0.7-2.3,0.7c-3.5,0-5.4-2.2-5.4-6.6v-16h-3.8l-0.2-0.6l1.5-1.6h2.5v-4l3.6-3.6
			l0.8,0.1v7.6h6.2c0.5,0.6,0.3,1.8-0.3,2.2h-5.9V89c0,4.5,1.8,5.3,3.2,5.3c1.4,0,2.6-0.6,3.4-0.9l0.5,1.4L291,96.7z"/>
		<path class="st2" d="M315.6,92.1c-3.5,4.4-7.3,5.4-9,5.4c-6.8,0-10.8-5.5-10.8-11.8c0-3.8,1.4-7.2,3.7-9.7c2.3-2.5,5.3-4,8.1-4
			c4.6,0,8.3,4.1,8.3,8.4c0,1.1-0.3,1.6-1.3,1.8c-0.9,0.2-7.9,0.7-14.5,0.9c0.1,7.5,4.4,10.6,8.3,10.6c2.2,0,4.3-0.9,6.3-2.8
			L315.6,92.1z M300.4,80.8c3.1,0,6.2-0.1,9.4-0.2c1,0,1.3-0.3,1.3-1.1c0.1-2.9-1.8-5.5-4.9-5.5C303.7,74,301.3,76.3,300.4,80.8z"/>
		<path class="st2" d="M325.7,78.2c1.7-2.8,4.1-6,6.8-6c1.9,0,3.3,1.5,3.3,2.8c0,1.1-0.7,2.2-1.8,2.8c-0.7,0.3-1.2,0.2-1.5-0.1
			c-0.8-0.8-1.5-1.2-2.4-1.2c-1.5,0-3.3,1.7-4.5,4.8v10.3c0,3.7,0.3,4,4.6,4.4v1.5h-12.9V96c3.5-0.3,3.9-0.7,3.9-4.4V80
			c0-3.7-0.3-3.9-3.5-4.4v-1.2c2.8-0.4,5.2-1.1,7.9-2.3v6.1H325.7z"/>
		<path class="st2" d="M376.3,92c-3.5,4.3-7.2,5.3-9,5.3c-6.8,0-10.7-5.5-10.7-11.7c0-3.8,1.4-7.1,3.6-9.6c2.3-2.5,5.2-4,8.1-4
			c4.6,0,8.2,4.1,8.2,8.3c0,1.1-0.3,1.5-1.3,1.8c-0.9,0.2-7.8,0.7-14.3,0.9c0.1,7.5,4.3,10.5,8.2,10.5c2.2,0,4.3-0.9,6.3-2.7
			L376.3,92z M361.3,80.8c3.1,0,6.1-0.1,9.3-0.2c1,0,1.3-0.3,1.3-1.1c0.1-2.9-1.8-5.5-4.8-5.5C364.5,74,362.1,76.4,361.3,80.8z"/>
		<path class="st2" d="M401.6,73.3c-2.8,0.4-3.3,0.9-4.8,3.9c-1.3,2.8-3,7.3-6.7,16.2c-3.6,8.6-4.8,11.7-5.5,14.6
			c-0.3,1-1,1.3-1.7,1.3c-1.5,0-3.1-1.3-3.1-2.6c0-0.9,0.5-1.3,1.4-1.9c1.7-1.1,2.7-2.4,4-4.8c1-1.9,1.5-3,1.7-3.7
			c0.3-0.8,0.3-1.5-0.1-2.4c-2.1-6.1-4.6-12.6-6.2-16.4c-1.1-3-1.7-3.7-4.6-4.1V72h10.9v1.3c-2.5,0.4-2.7,1-2,3l4.9,13.5
			c1.5-3.7,3.8-10,4.9-13.4c0.6-2,0.3-2.6-2.8-3.1V72h9.7V73.3z"/>
		<path class="st2" d="M346.7,78.2c1.7-2.8,4.1-6,6.8-6c1.9,0,3.3,1.5,3.3,2.8c0,1.1-0.7,2.2-1.8,2.8c-0.7,0.3-1.2,0.2-1.5-0.1
			c-0.8-0.8-1.5-1.2-2.4-1.2c-1.5,0-3.3,1.7-4.5,4.8v10.3c0,3.7,0.3,4,4.6,4.4v1.5h-12.9V96c3.5-0.3,3.9-0.7,3.9-4.4V80
			c0-3.7-0.3-3.9-3.5-4.4v-1.2c2.8-0.4,5.2-1.1,7.9-2.3v6.1H346.7z"/>
	</g>
</g>
<g id="logo">
	<path class="st2" d="M105.3,43.8c-3.9-20.6-16.2-34.7-36.2-41c-19.9-6.3-38-1.9-53,12.6C-5.7,36.4-5.3,70.9,16.6,91.8
		c8.1,7.7,17.7,12.4,28.8,14c1.1,0.2,1.3-0.1,1.3-1.1c-0.1-1.6-0.1-3.3,0-4.9c0.1-1.1-0.3-1.5-1.4-1.7c-3.9-0.6-7.7-1.6-11.3-3.3
		c-4.1-1.9-7.7-4.6-10.5-8.5c7.5-0.4,57.9-0.2,59.2,0.3c-1.7,2.3-3.8,4.3-6.2,5.9c-4.6,3.1-9.7,4.8-15.1,5.6
		c-1.4,0.2-1.9,0.7-1.7,2.1c0.1,1.1,0,2.2,0,3.3c0,2.7,0,2.7,2.6,2.2C91.5,100.4,110.8,73,105.3,43.8z M23.3,64.8
		c0.1,0.3,0.2,0.6,0,1.1c-5.7-5.5-8.1-13.9-3.5-21.7c2-3.5,4.8-6.2,7.6-9c6.5-6.4,13-12.7,19.5-19.1c3.6-3.6,6.2-7.6,6.2-12.9
		c3.7,1.7,5.9,6.8,4.7,10.7c-0.7,2.5-2.2,4.5-4,6.3C46,27.9,38.1,35.7,30.2,43.5c-4,3.9-7,8.4-7.6,14.2
		C22.4,60.1,22.8,62.4,23.3,64.8z M30,68.5c-1.7-2.2-2.6-4.3-3-6.7c-0.6-4.4,0.8-8.2,3.1-11.8c2.6-4.1,6.4-7.2,9.8-10.6
		c7.5-7.6,15.5-14.7,22.7-22.7c2.5-2.8,4.6-6,5.1-10.1c3.6,2.7,4.6,7.9,2.7,12.3c-1.1,2.5-2.8,4.4-4.7,6.3
		c-8.7,8.8-17.5,17.5-26.5,26c-2.1,2-3.9,4.3-5.5,6.7C31.7,61,30.2,64.3,30,68.5z M40,83.4c-3.2-2.7-4.9-5.7-5.3-9.4
		c-0.9-7.9,2.2-14.4,7.6-19.8c7.6-7.7,15.5-15.2,23.2-22.8c3.5-3.5,7-7.1,9.1-11.7c2.8,6,1.6,12-3.7,17.3c-7,7.1-14.2,14-21.3,21
		c-4.7,4.7-8.5,9.9-9.8,16.5C39.2,77.3,39.3,80.1,40,83.4z M82.6,59.2c-3.1,3.2-6.4,6.3-9.5,9.5c-4.1,4.2-7.8,8.6-9.2,14.7
		c-2.5-3.2-2.9-6.5-2-10.2c1.2-5.5,4.8-9.3,8.7-13c4.4-4.1,8.7-8.3,13.1-12.5c1.1-1,1.9-2.2,2.9-3.6C87.8,50.1,86.6,55.1,82.6,59.2z
		 M86.4,37.6c-1.1,2-2.6,3.6-4.2,5.2c-6.5,6.3-13,12.6-19.4,18.9c-4.1,4.1-7.8,8.4-9.9,13.9c-0.4,1.1-0.8,2.2-0.9,3.3
		c0,1.2,0,2.5,0,3.7c0,0.5-0.2,0.8-0.6,0.2c-2.6-3.5-4.5-7.2-4-11.8c0.4-3.3,1.9-6.2,4-8.7c3.8-4.7,8.4-8.6,12.7-12.9
		C70.5,43,77.6,37,83.4,29.9c1.2-1.5,2.3-3.1,3.3-5.1C88.5,29.3,88.7,33.4,86.4,37.6z"/>
</g>
<g id="guides" class="st0">
</g>
</svg>
