<?xml version="1.0" encoding="utf-8"?>
<!-- Generator: Adobe Illustrator 21.0.2, SVG Export Plug-In . SVG Version: 6.00 Build 0)  -->
<svg version="1.1" id="Capa_1" xmlns="http://www.w3.org/2000/svg" xmlns:xlink="http://www.w3.org/1999/xlink" x="0px" y="0px"
	 viewBox="0 0 861 262" style="enable-background:new 0 0 861 262;" xml:space="preserve">
<style type="text/css">
	.st0{fill-rule:evenodd;clip-rule:evenodd;}
	.st1{fill-rule:evenodd;clip-rule:evenodd;fill:#D60E1B;}
	.st2{fill-rule:evenodd;clip-rule:evenodd;fill:#FFFFFF;}
	.st3{fill:#020202;}
	.st4{fill:none;stroke:#FFFFFF;stroke-width:0.8587;}
	.st5{fill:none;stroke:#000000;stroke-width:0.8587;}
	.st6{fill:#FFFFFF;}
	.st7{fill:#211915;}
</style>
<path class="st0" d="M41.2,135.3c0,11-20.4,43.3-20.4,43.3S0.5,146.3,0.5,135.3c0-11,9.2-19.9,20.4-19.9S41.2,124.3,41.2,135.3
	L41.2,135.3z M20.8,120.4c8.8,0,15.9,6.9,15.9,15.5c0,8.5-7.1,15.5-15.9,15.5c-8.8,0-15.9-7-15.9-15.5
	C5,127.3,12.1,120.4,20.8,120.4L20.8,120.4z"/>
<path class="st0" d="M861.2,20.3c0,11-20.4,43.3-20.4,43.3s-20.4-32.3-20.4-43.3s9.2-19.9,20.4-19.9S861.2,9.3,861.2,20.3
	L861.2,20.3z M840.8,5.4c8.8,0,15.9,6.9,15.9,15.5c0,8.5-7.1,15.5-15.9,15.5c-8.8,0-15.9-7-15.9-15.5C825,12.3,832.1,5.4,840.8,5.4
	L840.8,5.4z"/>
<g>
	<path class="st1" d="M433,216.1l-10.6-18.4c-1.1-1.8-1.6-3.9-1.6-6.1c0-6.8,5.5-12.2,12.3-12.2c6.8,0,12.2,5.4,12.2,12.2
		c0,2.3-0.7,4.5-1.8,6.4L433,216.1z"/>
	<path class="st2" d="M433.1,184.9c3.8,0,7,3.1,7,7c0,3.8-3.2,7-7,7c-3.8,0-7-3.2-7-7C426.2,187.9,429.3,184.9,433.1,184.9
		L433.1,184.9z"/>
</g>
<g>
	<path class="st1" d="M691,238.1l-10.6-18.4c-1.1-1.8-1.6-3.9-1.6-6.1c0-6.8,5.5-12.2,12.3-12.2s12.2,5.4,12.2,12.2
		c0,2.3-0.7,4.5-1.8,6.4L691,238.1z"/>
	<path class="st2" d="M691.1,206.9c3.8,0,7,3.1,7,7c0,3.8-3.2,7-7,7c-3.8,0-7-3.2-7-7C684.2,209.9,687.3,206.9,691.1,206.9
		L691.1,206.9z"/>
</g>
<g>
	<g>
		<path class="st0" d="M625.7,206.5v38c0,2.2-1.7,4-4.2,4v4.2c0,2.5-1.7,4.2-4.2,4.2H613c-2.3,0-4-1.7-4-4.2v-4.2H592v4.2
			c0,2.5-2,4.2-4.2,4.2h-4.2c-2.5,0-4.2-1.7-4.2-4.2v-4.2c-2.3,0-4.2-1.7-4.2-4v-38c0-7,5.7-12.7,12.7-12.7H613
			C619.9,193.8,625.7,199.5,625.7,206.5L625.7,206.5z M572.3,210.7h2.2v12.7h-2.2c-1,0-2-1-2-2v-8.7
			C570.4,211.7,571.4,210.7,572.3,210.7L572.3,210.7z M628.4,210.7h-2.2v12.7h2.2c1,0,2-1,2-2v-8.7
			C630.4,211.7,629.6,210.7,628.4,210.7L628.4,210.7z M621.4,206.5h-42.1v25.4h42.1V206.5z M592,202.3H609l-2-4.2h-13.2L592,202.3z
			 M581.1,237.1h5c1.2,0,2,0.7,2,1.7v3.5c0,1-0.7,1.7-2,1.7h-5c-1.3,0-2-0.7-2-1.7v-3.5C579.1,237.8,579.8,237.1,581.1,237.1
			L581.1,237.1z M614.7,237.1h5.2c1,0,1.7,0.7,1.7,1.7v3.5c0,1-0.7,1.7-1.7,1.7h-5.2c-1,0-2-0.7-2-1.7v-3.5
			C612.7,237.8,613.7,237.1,614.7,237.1L614.7,237.1z"/>
	</g>
	<path class="st0" d="M548.3,198.5h0.9c2.5,0,4.4,1.9,4.4,4.3l0,0c0,1.3-0.7,2.6-1.7,3.3v41.3c3.8,0.2,7.2,0.9,9.8,1.8
		c3.3,1.3,5.4,3.2,5.4,5.3c0,2.1-2.1,4-5.4,5.3c-3.1,1.1-7.3,1.9-11.9,1.9c-4.6,0-8.9-0.8-11.9-1.9c-3.3-1.2-5.4-3.2-5.4-5.3
		c0-2.1,2.1-3.9,5.4-5.3c2.2-0.8,4.9-1.3,7.9-1.6v-41.5c-1-0.8-1.7-2-1.7-3.3l0,0C543.9,200.4,545.9,198.5,548.3,198.5L548.3,198.5z
		 M549.6,259.9c4.4,0,8.4-0.7,11.3-1.8c2.7-1,4.2-2.2,4.2-3.5c0-1.3-1.5-2.6-4.2-3.5c-2.4-0.9-5.5-1.5-9.1-1.7v4.5
		c0,0.7-0.3,1.3-0.7,1.8c-0.6,0.4-1.1,0.7-1.9,0.7h-0.5c-0.9,0-1.6-0.3-2.2-0.9c-0.6-0.6-1-1.3-1-2.2v-3.8c-2.8,0.3-5.3,0.9-7.3,1.6
		c-2.6,1-4.2,2.2-4.2,3.5c0,1.3,1.6,2.6,4.2,3.5C541.2,259.2,545.2,259.9,549.6,259.9L549.6,259.9z"/>
	<circle class="st0" cx="549" cy="207" r="11"/>
</g>
<g>
	<path class="st3" d="M282.3,172.6c0,10.1,8.2,18.4,18.4,18.4c10.1,0,18.4-8.2,18.4-18.4c0-10.1-8.2-18.4-18.4-18.4
		C290.5,154.3,282.3,162.5,282.3,172.6z M286.5,172.6c0-7.8,6.3-14.1,14.1-14.1c7.8,0,14.1,6.3,14.1,14.1c0,7.8-6.3,14.1-14.1,14.1
		C292.8,186.8,286.5,180.4,286.5,172.6z"/>
	<g>
		<polygon class="st3" points="300.4,173.6 303.8,171.6 283.4,138 272.2,138 272.2,141.9 281.2,141.9 		"/>
	</g>
	<g>
		<path class="st3" d="M258.9,154.5l28.6-5.1l2.8,3.2l-20.5,22h-30.5L258.9,154.5z M283.6,154l-22.8,4.1l-12.3,12.6h19.6L283.6,154z
			"/>
	</g>
	<g>
		<polygon class="st3" points="267.2,173.6 270.6,171.7 261.6,155.5 258.8,145.9 255,147 258,157.1 		"/>
	</g>
	<rect x="250.1" y="143.9" class="st3" width="12.7" height="3.9"/>
	<path class="st3" d="M222,172.6c0,10.1,8.2,18.4,18.4,18.4c10.1,0,18.4-8.2,18.4-18.4c0-10.1-8.2-18.4-18.4-18.4
		C230.2,154.3,222,162.5,222,172.6z M226.2,172.6c0-7.8,6.3-14.1,14.1-14.1c7.8,0,14.1,6.3,14.1,14.1c0,7.8-6.3,14.1-14.1,14.1
		C232.6,186.8,226.2,180.4,226.2,172.6z"/>
</g>
<g>
	<path class="st1" d="M137,224.1l-10.6-18.4c-1.1-1.8-1.6-3.9-1.6-6.1c0-6.8,5.5-12.2,12.3-12.2c6.8,0,12.2,5.4,12.2,12.2
		c0,2.3-0.7,4.5-1.8,6.4L137,224.1z"/>
	<path class="st2" d="M137.1,192.9c3.8,0,7,3.1,7,7c0,3.8-3.2,7-7,7c-3.8,0-7-3.2-7-7C130.2,195.9,133.3,192.9,137.1,192.9
		L137.1,192.9z"/>
</g>
<g>
	<ellipse cx="674.9" cy="75.4" rx="3.1" ry="2.8"/>
	<path d="M687.9,28.8l-12.7,0c-5.9,0-10.3,4.8-10.3,9.9v36.7c0,5,3.9,9.1,7.9,9.8L660.9,103h6.8l8.5-12.4h23.2l8.5,12.4h6.8
		l-11.8-17.8c4-0.6,7.9-4.8,7.9-9.8V38.7c0-5.2-4.4-9.9-10.3-9.9L687.9,28.8L687.9,28.8z M682.8,30.9h10c0.9,0,1.7,0.8,1.7,1.7v2.9
		c0,0.9-0.7,1.7-1.7,1.7h-10c-0.9,0-1.7-0.8-1.7-1.7v-2.9C681.1,31.6,681.9,30.9,682.8,30.9z M675.5,39.1h24.7
		c3.3,0,5.1,2.4,5.1,5.1v6.6c0,3.2-2.3,5.1-5.1,5.1h-24.7c-2.8,0-5.2-1.9-5.1-5.1v-6.6C670.3,41.5,672.1,39.1,675.5,39.1z
		 M674.9,70.8c2.5,0,4.5,2,4.5,4.5c0,2.5-2,4.5-4.5,4.5c-2.5,0-4.5-2-4.5-4.5C670.4,72.9,672.4,70.8,674.9,70.8z M700.6,70.8
		c2.5,0,4.5,2,4.5,4.5c0,2.5-2,4.5-4.5,4.5s-4.5-2-4.5-4.5C696.1,72.9,698.1,70.8,700.6,70.8z"/>
	<path d="M683.7,27.7c-1.6,0-2.8-1.3-2.8-2.8c0-1.6,1.3-2.8,2.8-2.8c1.6,0,2.8,1.3,2.8,2.8C686.5,26.4,685.3,27.7,683.7,27.7z"/>
	<path d="M691.2,27.7c1.6,0,2.8-1.3,2.8-2.8c0-1.6-1.3-2.8-2.8-2.8c-1.6,0-2.8,1.3-2.8,2.8C688.4,26.4,689.7,27.7,691.2,27.7z"/>
	<g>
		<g>
			<line class="st4" x1="681.6" y1="72" x2="693.1" y2="72"/>
			<line class="st4" x1="681.6" y1="75.3" x2="692.5" y2="75.3"/>
			<line class="st4" x1="681.4" y1="78.4" x2="692.7" y2="78.6"/>
		</g>
		<line class="st5" x1="686.9" y1="38.7" x2="687.2" y2="56.7"/>
	</g>
	<g>
		<ellipse cx="700.6" cy="75.3" rx="3.1" ry="2.9"/>
		<rect x="672.6" y="92.6" width="30.4" height="1.4"/>
		<rect x="670.2" y="96.4" width="35.2" height="1.2"/>
		<rect x="668.5" y="99.7" width="37.8" height="1.2"/>
	</g>
</g>
<g>
	<polygon class="st6" points="376.3,74.4 376.3,74.4 376.3,74.4 	"/>
	<path d="M449,46.3C449,46.3,449,46.3,449,46.3l0.1,0c3.6,0.3,6,0.5,6.1,0.5c0.5,0,4.2,0,4.5,0.2c0.3,0.2,0.1,1.2,0.1,1.2l-0.5,0.6
		H456l1.2,11.4l5.8-0.3c0,0,2.7,2.3,4.1,3.2c1.4,0.9,3.8,4,3.8,4l-0.4,2c0.4,0.2,0.8,2.4,0.8,2.4c0.4,0,1,0.5,1,0.5s0.7,4.4,0.7,4.9
		c0,0.4-0.3,0.6-0.3,0.6c0.2,3.3-0.5,4.6-0.5,4.6c-2.2,3.5-7.2,3.7-7.2,3.7s2-6.3-4.1-11.4c-6.1-5.1-11.7-3.4-16.7-0.1
		c-5,3.2-4.5,13.5-4.5,13.5L377,88c0,0,0.9-7.6-3.9-13.5c-4.8-6-11.7-5-17.1-1.6c-4.4,2.8-4.4,10.9-4.2,13.8c0,0.6,0.1,1,0.1,1
		l-10.1-1.3c0,0-0.8-1.3-1.1-1.5c-0.3-0.1-0.2-1.6-0.2-1.6l-0.2-1.1l0.8-0.8c-0.6-0.5-0.5-3.6-0.5-3.6l-0.6-0.6c0,0,0-2.1,0.2-2.5
		c0.2-0.5,0.6-0.4,0.6-0.4c-0.1-2,0.8-2.2,0.8-2.2s1.8-5.2,7.5-7.3c8.1-3.2,25.8-5.2,25.8-5.2l0.4,0.6h3.9c0,0,13.7-10.4,19.6-12
		l-0.3-0.4l-0.9-0.6c3.8-2.2,14.8-2.7,24.8-2.6c6,0.1,16.4,0.8,23.9,1.5 M349.8,66.4c0,0-3.8,0.6-4.5,1c-0.7,0.4-3,3.8-3,3.8
		l11.7-1.1C354,70.2,350.6,66.7,349.8,66.4z M376.3,74.4C376.3,74.4,376.3,74.4,376.3,74.4L376.3,74.4L376.3,74.4z M423.3,66.2
		c0-0.5-0.5-0.7-0.5-0.7l-6.6,0.4c0,0-0.8,0.2-0.8,0.6c0,0.4,0.7,0.5,0.7,0.5l6.8-0.1C422.8,66.8,423.3,66.7,423.3,66.2z
		 M398.7,48.9c-7.7,3-11.1,6.4-11.1,6.4l-0.3,2.5c0,0,0.4-0.1,0.7,0.4c0.2,0.5,0.4,2.8,0.3,3.1c-0.1,0.3-1.5,1.1-1.5,1.1l-0.1,0.8
		l35.7-2l1.8-14.4C424.2,46.7,406.4,45.9,398.7,48.9z M425.5,46.7l-0.5,14.4c0,0,27.8-0.4,28.8-1.7C454.1,59,444.7,47.1,425.5,46.7z
		"/>
	<path class="st6" d="M416,66.9c0,0-0.7-0.1-0.7-0.5c0-0.4,0.8-0.6,0.8-0.6l6.6-0.4c0,0,0.6,0.1,0.5,0.7c0,0.5-0.5,0.6-0.5,0.6
		L416,66.9z"/>
	<path d="M451.9,72.4c5.9,0,10.7,5,10.7,11.3c0,0.8-0.1,1.5-0.2,2.2c-1,5.2-5.3,9-10.5,9c-4.6,0-8.6-3.1-10.1-7.4
		c-0.4-1.2-0.7-2.5-0.7-3.8C441.2,77.5,446,72.4,451.9,72.4z"/>
	<path d="M364.5,72.4c5.9,0,10.7,5,10.7,11.3c0,1.4-0.3,2.8-0.7,4c-1.5,4.2-5.4,7.2-10,7.2c-5.1,0-9.3-3.7-10.5-8.7
		c-0.2-0.8-0.3-1.7-0.3-2.6C353.7,77.5,358.5,72.4,364.5,72.4z"/>
	<path class="st6" d="M364.3,76.6c3.9,0,7,3.3,7,7.4c0,0.9-0.2,1.8-0.5,2.6c-1,2.8-3.6,4.7-6.5,4.7c-3.3,0-6.1-2.4-6.8-5.7
		c-0.1-0.5-0.2-1.1-0.2-1.7C357.3,79.9,360.4,76.6,364.3,76.6z"/>
	<path class="st6" d="M452.1,76.6c3.9,0,7,3.3,7,7.4c0,0.9-0.2,1.8-0.5,2.6c-1,2.8-3.6,4.7-6.5,4.7c-3.3,0-6.1-2.4-6.8-5.7
		c-0.1-0.5-0.2-1.1-0.2-1.7C445.1,79.9,448.2,76.6,452.1,76.6z"/>
</g>
<g>
	<g>
		<g>
			<g>
				<g>
					<path class="st7" d="M29.8,191.6l-1.9-3c-2.6,1.7-5.2,3.3-7.8,4.9l1.9,3C24.6,194.9,27.2,193.3,29.8,191.6z"/>
					<polygon class="st7" points="41.3,184.1 39.4,181.1 31.7,186.2 33.6,189.2 					"/>
					
						<rect x="43.3" y="175.8" transform="matrix(0.8343 -0.5514 0.5514 0.8343 -89.9681 55.8606)" class="st7" width="9.2" height="3.5"/>
					<polygon class="st7" points="64.2,169 62.3,166 54.6,171.1 56.5,174 					"/>
					<path class="st7" d="M75.8,161.7l-1.8-3c-2.6,1.6-5.3,3.2-7.9,4.9l1.9,3C70.6,164.9,73.2,163.4,75.8,161.7z"/>
					<path class="st7" d="M87.6,154.8l-1.7-3.1c-2.7,1.5-5.4,3-8,4.7l1.8,3C82.3,157.8,85,156.3,87.6,154.8z"/>
					<polygon class="st7" points="99.6,148.4 98,145.2 93.9,147.3 89.8,149.5 91.5,152.6 95.6,150.4 					"/>
				</g>
			</g>
			<g>
				<g>
					<path class="st7" d="M111.9,142.4l-1.5-3.2c-2.8,1.2-5.6,2.6-8.4,4l1.6,3.2C106.4,145,109.1,143.6,111.9,142.4z"/>
					<path class="st7" d="M124.5,137.1l-1.3-3.3c-2.9,1.2-5.7,2.3-8.6,3.6l1.4,3.2C118.8,139.4,121.7,138.2,124.5,137.1z"/>
					<polygon class="st7" points="137.3,132.4 136.2,129 131.8,130.5 127.4,132.2 128.7,135.5 133,133.9 					"/>
					<path class="st7" d="M150.3,128.3l-1-3.4c-3,0.9-5.9,1.8-8.9,2.7l1.1,3.4C144.5,130.1,147.4,129.1,150.3,128.3z"/>
					<path class="st7" d="M163.5,124.9l-0.8-3.4l-4.5,1.1c-1.5,0.4-3,0.8-4.5,1.2l0.9,3.4c1.5-0.4,2.9-0.8,4.4-1.2L163.5,124.9z"/>
					<polygon class="st7" points="176.9,122 176.2,118.6 167.1,120.4 167.9,123.9 					"/>
					<path class="st7" d="M190.3,119.8l-0.5-3.5c-3.1,0.4-6.1,1-9.2,1.5l0.6,3.5C184.3,120.8,187.3,120.2,190.3,119.8z"/>
				</g>
			</g>
			<g>
				<g>
					<path class="st7" d="M203.9,118.2l-0.4-3.5l-4.6,0.5c-1.5,0.2-3.1,0.4-4.6,0.6l0.5,3.5c1.5-0.2,3-0.4,4.5-0.6L203.9,118.2z"/>
					<path class="st7" d="M217.5,117l-0.2-3.5c-3.1,0.2-6.2,0.4-9.2,0.7l0.3,3.5C211.4,117.4,214.5,117.2,217.5,117z"/>
					<polygon class="st7" points="231.2,116.3 231.1,112.7 221.8,113.1 222,116.7 					"/>
					<polygon class="st7" points="244.9,116 244.8,112.4 235.6,112.6 235.7,116.1 					"/>
					<polygon class="st7" points="258.5,116.1 258.6,112.6 249.4,112.5 249.3,116 					"/>
					<polygon class="st7" points="272.2,116.6 272.4,113.1 263.1,112.7 263,116.2 					"/>
					<polygon class="st7" points="285.9,117.4 286.1,113.9 276.9,113.3 276.7,116.8 					"/>
				</g>
			</g>
			<g>
				<g>
					<polygon class="st7" points="299.5,118.5 299.9,115 290.6,114.2 290.4,117.7 					"/>
					<polygon class="st7" points="313.1,120 313.6,116.5 304.4,115.4 304,119 					"/>
					<path class="st7" d="M326.7,121.9l0.5-3.5c-3.1-0.5-6.1-1-9.2-1.4l-0.5,3.5C320.6,120.9,323.6,121.4,326.7,121.9z"/>
					<polygon class="st7" points="340.1,124.2 340.8,120.7 336.3,119.9 334,119.4 331.7,119.1 331.1,122.6 333.4,122.9 335.6,123.4 
											"/>
					<path class="st7" d="M353.5,127l0.8-3.5c-3-0.7-6-1.4-9-2l-0.7,3.5C347.6,125.6,350.5,126.4,353.5,127z"/>
					<polygon class="st7" points="366.8,130.2 367.7,126.8 363.2,125.6 361,125.1 358.7,124.5 357.9,128 360.1,128.5 362.4,129.1 
											"/>
					<path class="st7" d="M380,133.8l1-3.4c-3-0.8-5.9-1.7-8.9-2.5l-0.9,3.4C374.1,132.1,377.1,133,380,133.8z"/>
				</g>
			</g>
			<g>
				<g>
					<polygon class="st7" points="393.1,137.7 394.2,134.4 385.3,131.7 384.3,135.1 					"/>
					<polygon class="st7" points="406.2,141.9 407.3,138.5 398.5,135.7 397.4,139.1 					"/>
					
						<rect x="413.7" y="138.3" transform="matrix(0.3029 -0.953 0.953 0.3029 153.3817 495.585)" class="st7" width="3.5" height="9.2"/>
					<path class="st7" d="M432.4,150.1l1-3.4c-2.9-0.9-5.9-1.8-8.8-2.7l-1.1,3.4C426.6,148.3,429.5,149.3,432.4,150.1z"/>
					<path class="st7" d="M445.7,154l1-3.4c-3-0.8-5.9-1.7-8.8-2.6l-1,3.4C439.7,152.3,442.7,153.2,445.7,154z"/>
					<polygon class="st7" points="459,157.5 459.8,154.1 455.4,153 451,151.8 450,155.2 454.5,156.4 					"/>
					<path class="st7" d="M472.4,160.6l0.7-3.5c-3-0.6-6-1.2-9-2l-0.8,3.4C466.4,159.4,469.4,160,472.4,160.6z"/>
				</g>
			</g>
			<g>
				<g>
					<path class="st7" d="M486,163.3l0.6-3.5c-3-0.5-6-1-9-1.7l-0.7,3.5C479.9,162.3,482.9,162.8,486,163.3z"/>
					<path class="st7" d="M499.6,165.5l0.5-3.5l-4.5-0.6c-1.5-0.2-3-0.5-4.5-0.8l-0.6,3.5c1.5,0.3,3,0.6,4.6,0.8L499.6,165.5z"/>
					<path class="st7" d="M513.3,167.2l0.4-3.5c-1.5-0.2-3-0.3-4.6-0.5l-4.5-0.6l-0.5,3.5l4.6,0.6
						C510.2,166.9,511.7,167,513.3,167.2z"/>
					<path class="st7" d="M527,168.4l0.2-3.5c-3.1-0.1-6.1-0.5-9.1-0.8l-0.3,3.5C520.9,168,523.9,168.3,527,168.4z"/>
					<polygon class="st7" points="540.8,169.1 540.9,165.6 538.6,165.6 536.3,165.4 531.7,165.1 531.5,168.7 536.2,169 538.5,169.1 
											"/>
					<polygon class="st7" points="554.6,169.4 554.6,165.8 545.4,165.7 545.3,169.2 					"/>
					<polygon class="st7" points="568.4,169 568.2,165.5 559.1,165.7 559.1,169.3 					"/>
				</g>
			</g>
			<g>
				<g>
					<polygon class="st7" points="582.2,168.2 581.9,164.6 572.7,165.3 572.9,168.8 					"/>
					<path class="st7" d="M595.9,166.9l-0.4-3.5c-3,0.3-6.1,0.8-9.1,0.9l0.3,3.5C589.8,167.7,592.8,167.2,595.9,166.9z"/>
					<path class="st7" d="M609.6,165.2l-0.5-3.5c-1.5,0.3-3,0.4-4.6,0.6l-4.6,0.5l0.4,3.5l4.6-0.5
						C606.5,165.7,608.1,165.5,609.6,165.2z"/>
					<polygon class="st7" points="623.2,163 622.6,159.5 613.5,161 614.1,164.5 					"/>
					<polygon class="st7" points="636.7,160.4 636,156.9 627,158.8 627.7,162.3 					"/>
					<polygon class="st7" points="650.2,157.4 649.4,154 647.1,154.6 644.9,155 640.4,156 641.2,159.4 645.7,158.5 647.9,158 					
						"/>
					<polygon class="st7" points="663.5,154 662.6,150.5 653.7,152.8 654.6,156.3 					"/>
				</g>
			</g>
			<g>
				<g>
					<path class="st7" d="M676.8,150.1l-1-3.4l-4.4,1.4c-1.5,0.4-2.9,0.9-4.4,1.3l1,3.4c1.5-0.4,3-0.9,4.4-1.3L676.8,150.1z"/>
					<polygon class="st7" points="689.9,146.1 688.8,142.7 680.1,145.4 681.1,148.8 					"/>
					<polygon class="st7" points="702.9,141.5 701.7,138.2 693.1,141.3 694.2,144.6 					"/>
					<path class="st7" d="M715.9,136.8l-1.3-3.3c-1.4,0.6-2.9,1.1-4.3,1.6l-4.3,1.6l1.2,3.3l4.4-1.6
						C713,137.9,714.5,137.4,715.9,136.8z"/>
					<polygon class="st7" points="728.6,131.5 727.3,128.3 718.8,131.8 720.1,135 					"/>
					<path class="st7" d="M741.3,126.2l-1.4-3.2c-2.8,1.3-5.6,2.5-8.5,3.6l1.4,3.3C735.7,128.7,738.5,127.5,741.3,126.2z"/>
					<polygon class="st7" points="753.8,120.4 752.3,117.2 744,121.1 745.4,124.3 					"/>
				</g>
			</g>
			<g>
				<g>
					<path class="st7" d="M766.3,114.5l-1.6-3.2c-1.4,0.7-2.7,1.4-4.1,2.1l-4.2,1.9l1.5,3.2l4.2-1.9
						C763.5,116,764.9,115.2,766.3,114.5z"/>
					<polygon class="st7" points="778.5,108.2 776.9,105.1 768.7,109.3 770.3,112.5 					"/>
					<path class="st7" d="M790.7,101.9l-1.7-3.1c-2.6,1.6-5.4,2.9-8.1,4.3l1.6,3.1C785.3,104.8,788.1,103.4,790.7,101.9z"/>
					<polygon class="st7" points="802.7,95.1 801,92 793,96.6 794.7,99.7 					"/>
					<polygon class="st7" points="814.7,88.3 812.9,85.3 804.9,89.8 806.7,92.9 					"/>
					<polygon class="st7" points="826.4,81.1 824.6,78.1 816.7,82.9 818.6,86 					"/>
					<polygon class="st7" points="838.1,73.9 836.2,70.9 828.4,75.7 830.3,78.8 					"/>
				</g>
			</g>
		</g>
	</g>
</g>
<g>
	<path class="st1" d="M568,86.1l-10.6-18.4c-1.1-1.8-1.6-3.9-1.6-6.1c0-6.8,5.5-12.2,12.3-12.2s12.2,5.4,12.2,12.2
		c0,2.3-0.7,4.5-1.8,6.4L568,86.1z"/>
	<path class="st2" d="M568.1,54.9c3.8,0,7,3.1,7,7c0,3.8-3.2,7-7,7c-3.8,0-7-3.2-7-7C561.2,57.9,564.3,54.9,568.1,54.9L568.1,54.9z"
		/>
</g>
<g>
	<path class="st1" d="M253,75.1l-10.6-18.4c-1.1-1.8-1.6-3.9-1.6-6.1c0-6.8,5.5-12.2,12.3-12.2c6.8,0,12.2,5.4,12.2,12.2
		c0,2.3-0.7,4.5-1.8,6.4L253,75.1z"/>
	<path class="st2" d="M253.1,43.9c3.8,0,7,3.1,7,7c0,3.8-3.2,7-7,7c-3.8,0-7-3.2-7-7C246.2,46.9,249.3,43.9,253.1,43.9L253.1,43.9z"
		/>
</g>
<g>
	<g>
		<path d="M137.1,52.5c9.4,0,17.1-8.9,17.1-20c0-15.3-7.6-20-17.1-20c-9.4,0-17.1,4.7-17.1,20C120,43.6,127.6,52.5,137.1,52.5z"/>
		<path d="M174.8,81.9l-8.6-19.4c-0.4-0.9-1.1-1.6-1.9-2.1l-13.4-7c-0.3-0.2-0.7-0.1-0.9,0.1c-3.8,2.9-8.2,4.4-12.9,4.4
			c-4.6,0-9.1-1.5-12.9-4.4c-0.3-0.2-0.6-0.2-0.9-0.1l-13.4,7c-0.9,0.4-1.6,1.2-1.9,2.1l-8.6,19.4c-0.6,1.3-0.5,2.9,0.3,4.1
			c0.8,1.2,2.1,2,3.6,2h67.5c1.5,0,2.8-0.7,3.6-2C175.2,84.8,175.3,83.3,174.8,81.9z"/>
	</g>
</g>
<g>
	<path class="st6" d="M139.3,66.2c-3,8.4,11.2,17.1,12.3,17.8V65.2C148.9,60.2,141.6,59.7,139.3,66.2z"/>
	<path class="st6" d="M163.9,66.2c-2-5.6-7.5-6.1-10.8-3.1c-0.6,0.5-1.1,1.2-1.5,2V84c0.6-0.4,5.2-3.1,8.6-6.9
		C163.1,73.9,165.3,70.1,163.9,66.2z"/>
</g>
</svg>
