<?xml version="1.0" encoding="utf-8"?>
<!-- Generator: Adobe Illustrator 21.0.2, SVG Export Plug-In . SVG Version: 6.00 Build 0)  -->
<svg version="1.1" id="Capa_1" xmlns="http://www.w3.org/2000/svg" xmlns:xlink="http://www.w3.org/1999/xlink" x="0px" y="0px"
	 viewBox="0 0 66 60" style="enable-background:new 0 0 66 60;" xml:space="preserve">
<style type="text/css">
	.st0{fill-rule:evenodd;clip-rule:evenodd;fill:#020202;}
	.st1{fill-rule:evenodd;clip-rule:evenodd;}
	.st2{fill-rule:evenodd;clip-rule:evenodd;fill:#FFFFFF;}
</style>
<g>
	<path class="st0" d="M13.3,25.5h10.9L33,40.9l8.9-15.4h10.9c0.5,0,0.7,0.4,0.8,0.8l11.1,31.4c0.2,0.4-0.4,0.9-0.8,0.9H2.2
		c-0.4,0-0.9-0.4-0.8-0.9l11.1-31.4C12.7,25.9,12.8,25.5,13.3,25.5L13.3,25.5z"/>
	<path class="st1" d="M33,38.1L22.3,19.7c-1.1-1.8-1.6-3.9-1.6-6.1c0-6.8,5.5-12.2,12.3-12.2c6.8,0,12.2,5.4,12.2,12.2
		c0,2.3-0.7,4.5-1.8,6.4L33,38.1z"/>
	<path class="st2" d="M33.3,6.9c3.8,0.1,6.9,3.2,6.9,7.1c-0.1,3.8-3.3,6.9-7.1,6.9c-3.8-0.1-6.9-3.3-6.9-7.1
		C26.2,9.8,29.4,6.8,33.3,6.9L33.3,6.9z"/>
</g>
</svg>
