<?xml version="1.0" encoding="utf-8"?>
<!-- Generator: Adobe Illustrator 19.0.1, SVG Export Plug-In . SVG Version: 6.00 Build 0)  -->
<svg version="1.1" id="Layer_1" xmlns="http://www.w3.org/2000/svg" xmlns:xlink="http://www.w3.org/1999/xlink" x="0px" y="0px"
	 viewBox="-341 242.4 275.3 56.2" style="enable-background:new -341 242.4 275.3 56.2;" xml:space="preserve">
<style type="text/css">
	.st0{fill:#044B7D;}
</style>
<rect x="-263.9" y="247" class="st0" width="8.4" height="7.7"/>
<rect x="-263.9" y="258.7" class="st0" width="8.4" height="39.2"/>
<polygon class="st0" points="-210.2,286.4 -218.3,258.7 -227.5,258.7 -235.6,286.4 -241.1,258.7 -249.2,258.7 -240.9,297.9 
	-231.1,297.9 -222.9,268.9 -214.7,297.9 -204.9,297.9 -196.6,258.7 -204.7,258.7 "/>
<path class="st0" d="M-318.4,290.6c-2,0.3-4.2,0.4-6.3,0.4c-6.7,0-7.9-2.4-7.9-7v-25.3h-8.4v25.1c0,7.4,2,14.9,16.7,14.9
	c3.4,0,9.1-0.5,13.5-1.5l0.8-0.2v-38.3h-8.4L-318.4,290.6L-318.4,290.6z M-287.2,257.9l-4.5,7.8c1.5-0.1,3.1-0.2,4.7-0.2
	c6.7,0,7.9,2.4,7.9,7v11.4c0,4.7-1.2,7-7.9,7c-2.2,0-4.3-0.1-6.3-0.4v-48.2l-8.4,1.2V297l0.8,0.2c4.4,1,10,1.5,13.5,1.5
	c14.8,0,16.7-7.5,16.7-14.9v-10.9C-270.7,265.5-272.3,256.5-287.2,257.9"/>
<polygon class="st0" points="-191.4,297.9 -183.1,297.9 -183.1,242.4 -191.4,243.6 "/>
<path class="st0" d="M-176.8,257.9l-4.7,8.1c1.7-0.3,3.3-0.5,4.8-0.5c6.7,0,7.9,2.4,7.9,7v25.3h8.4v-26.1
	C-160.4,264.4-163,255.9-176.8,257.9"/>
<path class="st0" d="M-139.2,257.9c-10.2,0-15.5,5.1-15.5,14.9v11.2c0,9.9,5.1,14.7,15.7,14.7c4.7,0,9.7-0.8,13.4-2.2l0.5-0.2
	l-3.7-6.4c-3.6,0.9-6.9,1.3-9.8,1.3c-6.7,0-7.8-1.9-7.8-7.3v-2.1h22.1v-8.8C-124.3,263-129.3,257.9-139.2,257.9 M-132.4,274.4h-13.9
	v-2.1c0-5,2.1-7.1,7.2-7.1c4.9,0,6.8,1.9,6.8,7.1V274.4z M-80.7,257.9c-10.2,0-15.5,5.1-15.5,14.9v11.2c0,9.9,5.1,14.7,15.7,14.7
	c4.7,0,9.7-0.8,13.4-2.2l0.5-0.2l-3.7-6.4c-3.6,0.9-6.9,1.3-9.8,1.3c-6.7,0-7.8-1.9-7.8-7.3v-2.1h22.1v-8.8
	C-65.7,263-70.8,257.9-80.7,257.9 M-73.9,274.4h-13.9v-2.1c0-5,2.1-7.1,7.2-7.1c4.9,0,6.8,1.9,6.8,7.1L-73.9,274.4L-73.9,274.4z"/>
<rect x="-118.9" y="259.8" class="st0" width="8.4" height="38"/>
<path class="st0" d="M-109.6,267.6L-109.6,267.6l4.6-8.2c0.9-0.2,1.7-0.3,1.7-0.3c3.3-0.5,5.9-0.3,8.1,0.2l-4.3,7.8
	c-1-0.2-2.4-0.3-3.6-0.3C-106.3,266.7-109.6,267.6-109.6,267.6L-109.6,267.6z"/>
</svg>
